<svg width="201" height="106" viewBox="0 0 201 106" fill="none" xmlns="http://www.w3.org/2000/svg">
<path d="M26.2972 8.92C35.8972 8.92 43.8172 14.56 48.3772 24.4H75.6172V0.639996H84.6172V106H75.6172V65.2H48.8572C44.5372 75.76 36.3772 82 26.2972 82C11.0572 82 0.257191 67.72 0.257191 45.4C0.257191 23.08 11.0572 8.92 26.2972 8.92ZM8.77719 45.4C8.77719 62.68 15.9772 73.96 26.2972 73.96C36.4972 73.96 43.6972 62.68 43.6972 45.4C43.6972 28.24 36.4972 17.08 26.2972 17.08C15.9772 17.08 8.77719 28.24 8.77719 45.4ZM50.8972 31.84C51.9772 35.92 52.4572 40.48 52.4572 45.4C52.4572 49.84 51.9772 53.92 51.2572 57.64H75.6172V31.84H50.8972ZM105.5 55H200.66V62.56H105.5V55ZM117.62 10.6V3.51999H188.42V28H126.74V38.68H190.58V45.76H117.86V21.16H179.42V10.6H117.62ZM118.34 104.32V72.4H188.42V104.32H118.34ZM127.22 97H179.54V79.72H127.22V97Z" fill="#FFAD00"/>
</svg>
