<svg width="202" height="106" viewBox="0 0 202 106" fill="none" xmlns="http://www.w3.org/2000/svg">
<path d="M70.6172 0.639996H79.7372V43.6H96.7772V51.28H79.7372V105.88H70.6172V0.639996ZM0.0571908 78.64C26.9372 65.08 41.5772 44.56 43.6172 19.6H4.73719V12.04H52.7372C52.7372 41.8 38.9372 68.8 5.09719 85.72L0.0571908 78.64ZM153.9 2.68C177.06 2.68 190.74 9.04 190.74 20.8C190.74 32.56 177.06 39.16 153.9 39.16C130.74 39.16 117.18 32.56 117.18 20.8C117.18 9.04 130.74 2.68 153.9 2.68ZM106.5 53.68V46.36H201.42V53.68H106.5ZM118.02 69.88V63.04H189.18V86.32H127.26V97.48H192.42V104.56H118.38V79.6H180.3V69.88H118.02ZM126.42 20.8C126.42 28.12 136.74 32.08 153.9 32.08C171.18 32.08 181.38 28.12 181.38 20.8C181.38 13.72 171.18 9.52 153.9 9.52C136.74 9.52 126.42 13.72 126.42 20.8Z" fill="#97B6C2"/>
</svg>
