<svg width="203" height="106" viewBox="0 0 203 106" fill="none" xmlns="http://www.w3.org/2000/svg">
<path d="M53.2572 12.04C53.2572 18.04 52.6572 23.92 51.5772 29.68H77.4972V0.639996H86.4972V105.76H77.4972V65.32H48.0972V57.76H77.4972V37.24H49.6572C43.6572 56.8 29.8572 73.72 5.25719 85.84L0.457191 78.64C28.2972 64.96 42.0972 44.44 44.0172 19.6H5.01719V12.04H53.2572ZM154.9 2.2C178.06 2.2 191.74 8.55999 191.74 20.2C191.74 31.96 178.06 38.56 154.9 38.56C131.74 38.56 118.18 31.96 118.18 20.2C118.18 8.55999 131.74 2.2 154.9 2.2ZM107.5 52.96V45.52H202.42V52.96H159.34V63.04H190.18V86.32H128.26V97.48H193.42V104.56H119.38V79.6H181.3V69.88H119.02V63.04H150.34V52.96H107.5ZM127.42 20.2C127.42 27.52 137.74 31.48 154.9 31.48C172.18 31.48 182.38 27.52 182.38 20.2C182.38 13.24 172.18 8.92 154.9 8.92C137.74 8.92 127.42 13.24 127.42 20.2Z" fill="#005074"/>
</svg>
