<?xml version="1.0" encoding="UTF-8"?>
<!DOCTYPE svg PUBLIC "-//W3C//DTD SVG 1.1//EN" "http://www.w3.org/Graphics/SVG/1.1/DTD/svg11.dtd">
<svg xmlns="http://www.w3.org/2000/svg" version="1.1" width="192px" height="192px" style="shape-rendering:geometricPrecision; text-rendering:geometricPrecision; image-rendering:optimizeQuality; fill-rule:evenodd; clip-rule:evenodd" xmlns:xlink="http://www.w3.org/1999/xlink">
<g><path style="opacity:0.989" fill="#fe5d00" d="M 188.5,95.5 C 181.56,68.5153 164.227,57.3486 136.5,62C 127.231,66.2604 119.398,72.427 113,80.5C 105,91.1667 97,101.833 89,112.5C 81.1348,122.502 71.3015,129.669 59.5,134C 40.7366,138.969 25.5699,133.802 14,118.5C 11.1908,113.141 8.69078,107.808 6.5,102.5C 6.41782,61.134 24.7511,31.3007 61.5,13C 102.726,-1.98428 138.226,6.51572 168,38.5C 181.461,55.0456 188.295,74.0456 188.5,95.5 Z"/></g>
<g><path style="opacity:0.981" fill="#035073" d="M 188.5,95.5 C 188.822,138.667 168.822,167.833 128.5,183C 86.4657,194.873 51.2991,184.373 23,151.5C 12.4316,136.902 6.93161,120.568 6.5,102.5C 8.69078,107.808 11.1908,113.141 14,118.5C 25.5699,133.802 40.7366,138.969 59.5,134C 71.3015,129.669 81.1348,122.502 89,112.5C 97,101.833 105,91.1667 113,80.5C 119.398,72.427 127.231,66.2604 136.5,62C 164.227,57.3486 181.56,68.5153 188.5,95.5 Z"/></g>
</svg>
