<svg width="93" height="41" viewBox="0 0 93 41" fill="none" xmlns="http://www.w3.org/2000/svg">
<path d="M71.4609 23.0225C71.5549 23.0225 72.1194 24.2723 73.1543 26.7721C73.3937 27.243 75.4806 31.9686 79.4148 40.9489L79.3122 41.0003H76.9003C76.8148 41.0003 76.4043 40.1099 75.6687 38.3293C75.3523 37.6102 75.147 37.1993 75.053 37.0965H65.3543C65.2345 37.2763 64.6359 38.5776 63.5582 41.0003H61.0951L60.9924 40.9489C66.0556 29.4089 68.6898 23.4334 68.8951 23.0225H71.4609ZM70.178 25.9503L66.4319 34.5283H73.9753L70.2293 25.9503H70.178Z" fill="#201A1A"/>
<path d="M81.3515 23.0225H83.7633C83.8574 23.0567 84.9692 25.1798 87.0988 29.3917L90.383 35.8638H90.4343V23.1252C90.4429 23.0567 90.4771 23.0225 90.537 23.0225H92.8975C92.9659 23.031 93.0001 23.0653 93.0001 23.1252V40.8975C93.0001 40.966 92.9659 41.0003 92.8975 41.0003H90.4857C90.4001 41.0003 89.5449 39.3737 87.9199 36.1206C85.3883 31.1895 84.037 28.5357 83.8659 28.159H83.8146V40.8975C83.8146 40.966 83.7804 41.0003 83.712 41.0003H81.3515C81.283 41.0003 81.2488 40.966 81.2488 40.8975V23.1252C81.2574 23.0567 81.2916 23.0225 81.3515 23.0225Z" fill="#201A1A"/>
<path d="M42.328 0.0513652H44.6885C44.7569 0.059926 44.7911 0.0941695 44.7911 0.154096V9.45119C44.8253 9.45119 47.3398 6.33504 52.3345 0.10273L52.4372 0.0513652H55.2595V0.154096C51.428 4.91394 49.5122 7.31098 49.5122 7.34522V7.39659C53.5148 13.9371 55.653 17.4642 55.9267 17.9778V18.0292H53.2582C52.9589 17.6268 51.4023 15.0928 48.5885 10.4271C48.2806 9.89636 48.0411 9.5368 47.8701 9.34846L44.7911 13.2009V17.9264C44.7911 17.9949 44.7569 18.0292 44.6885 18.0292H42.328C42.2596 18.0292 42.2253 17.9949 42.2253 17.9264V0.154096C42.2339 0.0856086 42.2681 0.0513652 42.328 0.0513652Z" fill="#201A1A"/>
<path d="M66.0995 0.0513652H67.0232C69.2896 0.0513652 71.4449 1.11291 73.489 3.23601C74.8574 5.08515 75.5416 6.86581 75.5416 8.57798V9.50256C75.5416 11.7712 74.4811 13.9285 72.36 15.9746C70.5126 17.3443 68.7337 18.0292 67.0232 18.0292H66.0995C63.833 18.0292 61.6778 16.9676 59.6337 14.8445C58.2653 12.9954 57.5811 11.2147 57.5811 9.50256V8.57798C57.5811 6.30936 58.6416 4.15202 60.7627 2.10597C62.61 0.736234 64.389 0.0513652 66.0995 0.0513652ZM60.1982 8.73208V8.98891C60.1982 9.02315 60.1811 9.04027 60.1469 9.04027L60.1982 9.143V9.34846C60.1982 11.2062 61.0705 12.8327 62.8153 14.2282C63.9528 15.0158 65.0988 15.4096 66.2534 15.4096H66.8692C68.7252 15.4096 70.3501 14.5363 71.7442 12.7899C72.5311 11.6513 72.9245 10.5042 72.9245 9.34846V8.73208C72.9245 6.87437 72.0521 5.24781 70.3074 3.85239C69.1699 3.06479 68.0238 2.67099 66.8692 2.67099H66.2534C64.3975 2.67099 62.7725 3.5442 61.3784 5.29061C60.5916 6.42921 60.1982 7.57636 60.1982 8.73208Z" fill="#201A1A"/>
<path d="M86.946 0C89.3579 0.00856086 91 1.07011 91.8723 3.18464C92.0776 3.71541 92.1802 4.24619 92.1802 4.77696V4.93106C92.1802 6.96854 91.1368 8.47526 89.05 9.45119C88.4598 9.65665 87.8782 9.75938 87.3052 9.75938H87.2539C87.2539 9.79363 89.1013 12.516 92.796 17.9264V18.0292H90.1276C89.6059 17.37 87.7243 14.6134 84.4829 9.75938H79.9671V17.9264C79.9671 17.9949 79.9329 18.0292 79.8644 18.0292H77.5039C77.4355 18.0292 77.4013 17.9949 77.4013 17.9264V0.154096C77.4098 0.0856086 77.444 0.0513652 77.5039 0.0513652C78.6756 0.0513652 81.823 0.0342435 86.946 0ZM79.9671 2.61962V7.13976H87.3565C88.8276 7.13976 89.5631 6.45489 89.5631 5.08515V4.82833C89.5631 3.35586 88.7421 2.61962 87.1 2.61962H79.9671Z" fill="#201A1A"/>
<path d="M0.102738 0H7.133C9.39945 0 11.5547 1.06155 13.5988 3.18464C14.9672 5.03379 15.6514 6.81445 15.6514 8.52662L15.6513 32.0124C15.6513 34.2811 14.5908 36.4384 12.4697 38.4845C10.6224 39.8542 8.84342 40.5391 7.13289 40.5391H0.102632C0.0342105 40.5391 0 40.5048 0 40.4363L0.000106812 0.10273C0.00865944 0.0342435 0.04287 0 0.102738 0ZM2.5659 2.56826L2.56579 37.9708H5.43947C7.83421 37.9708 9.425 37.5941 10.2118 36.8408C11.4092 36.1987 12.3158 34.9146 12.9316 32.9884C13 32.4833 13.0342 32.1066 13.0342 31.8584L13.0343 8.68072C13.0343 6.52338 11.9054 4.7256 9.64747 3.28737C8.80076 2.80796 7.41524 2.56826 5.49089 2.56826H2.5659Z" fill="#201A1A"/>
<path d="M27.6973 0C27.7914 0 28.3558 1.24989 29.3907 3.74966C29.6302 4.22051 31.717 8.9461 35.6512 17.9265L35.5486 17.9778H33.1367C33.0512 17.9778 32.6407 17.0875 31.9052 15.3068C31.5887 14.5877 31.3835 14.1768 31.2894 14.0741H21.5907C21.471 14.2538 20.8723 15.5551 19.7947 17.9778H17.3315L17.2289 17.9265C22.292 6.38641 24.9262 0.410921 25.1315 0H27.6973ZM26.4144 2.92782L22.6683 11.5058H30.2118L26.4657 2.92782H26.4144Z" fill="#201A1A"/>
<rect x="42.2253" y="24.0234" width="15.9519" height="2.81775" fill="#201A1A"/>
<rect x="42.2251" y="30.5977" width="15.9519" height="2.81775" fill="#201A1A"/>
<rect x="42.2251" y="37.1729" width="15.9519" height="2.81775" fill="#201A1A"/>
<path d="M27.2122 40.5715C31.8763 40.5715 35.6573 36.7869 35.6573 32.1183C35.6573 27.4497 31.8763 23.665 27.2122 23.665C22.5481 23.665 18.7671 27.4497 18.7671 32.1183C18.7671 36.7869 22.5481 40.5715 27.2122 40.5715Z" fill="#FF5E00"/>
<path d="M35.5845 31.7529C35.3773 30.8092 34.6008 28.7371 31.7733 28.7371C28.1121 28.7371 26.8714 35.7722 22.5899 35.7722C19.1953 35.7722 18.7671 32.6422 18.7671 32.6422C18.7671 37.0215 22.5481 40.5716 27.2122 40.5716C31.8763 40.5716 35.6573 37.0215 35.6573 32.6422C35.6573 32.4445 35.6493 32.2485 35.6342 32.0544C35.6224 31.979 35.606 31.8776 35.5845 31.7529Z" fill="#005074"/>
</svg>
